<svg width="8" height="9" viewBox="0 0 8 9" fill="none" xmlns="http://www.w3.org/2000/svg">
<path d="M5.10156 4.5L7.63281 1.99219C7.77344 1.85156 7.77344 1.59375 7.63281 1.45312L7.04688 0.867188C6.90625 0.726562 6.64844 0.726562 6.50781 0.867188L4 3.39844L1.46875 0.867188C1.32812 0.726562 1.07031 0.726562 0.929688 0.867188L0.34375 1.45312C0.203125 1.59375 0.203125 1.85156 0.34375 1.99219L2.875 4.5L0.34375 7.03125C0.203125 7.17188 0.203125 7.42969 0.34375 7.57031L0.929688 8.15625C1.07031 8.29688 1.32812 8.29688 1.46875 8.15625L4 5.625L6.50781 8.15625C6.64844 8.29688 6.90625 8.29688 7.04688 8.15625L7.63281 7.57031C7.77344 7.42969 7.77344 7.17188 7.63281 7.03125L5.10156 4.5Z" fill="white"/>
</svg>
