<svg width="18" height="19" viewBox="0 0 18 19" fill="none" xmlns="http://www.w3.org/2000/svg">
<path d="M9.19531 18.0156L9.97656 17.2734C10.1719 17.0781 10.1719 16.7656 9.97656 16.6094L3.92188 10.5156H17.2812C17.5156 10.5156 17.75 10.3203 17.75 10.0469V8.95312C17.75 8.71875 17.5156 8.48438 17.2812 8.48438H3.92188L9.97656 2.42969C10.1719 2.27344 10.1719 1.96094 9.97656 1.76562L9.19531 1.02344C9.03906 0.828125 8.72656 0.828125 8.53125 1.02344L0.367188 9.1875C0.171875 9.38281 0.171875 9.65625 0.367188 9.85156L8.53125 18.0156C8.72656 18.2109 9.03906 18.2109 9.19531 18.0156Z" fill="#4D4B63"/>
</svg>
